<?xml version="1.0" standalone="no"?>
<!DOCTYPE svg PUBLIC "-//W3C//DTD SVG 20010904//EN"
 "http://www.w3.org/TR/2001/REC-SVG-20010904/DTD/svg10.dtd">
<svg version="1.0" xmlns="http://www.w3.org/2000/svg"
 width="376.000000pt" height="263.000000pt" viewBox="0 0 376.000000 263.000000"
 preserveAspectRatio="xMidYMid meet">

<g transform="translate(0.000000,263.000000) scale(0.100000,-0.100000)"
fill="#000000" stroke="none">
<path d="M1490 2440 l-365 -189 -3 -745 -2 -746 755 0 755 0 0 743 0 742 -380
193 c-208 105 -382 192 -387 191 -4 -1 -172 -86 -373 -189z m615 -61 c-3 -3
-39 -12 -82 -20 -93 -17 -276 -15 -353 3 l-55 14 124 66 125 66 122 -61 c68
-34 121 -64 119 -68z m-340 -90 c103 -11 234 0 358 32 l78 20 160 -83 159 -83
0 -81 0 -82 -80 34 c-358 151 -654 165 -989 49 -56 -20 -127 -47 -157 -60 -31
-14 -58 -25 -61 -25 -2 0 -2 39 -1 86 l3 87 148 77 148 77 72 -18 c40 -11 112
-24 162 -30z m325 -196 c94 -19 236 -64 346 -110 l84 -35 0 -68 0 -69 -103 50
c-152 72 -234 91 -397 93 -183 1 -355 -20 -381 -47 -10 -12 -19 -23 -19 -27 0
-6 185 -108 309 -170 165 -82 360 -149 529 -181 l62 -12 0 -68 0 -69 -46 0
c-63 0 -226 34 -333 70 -50 17 -185 71 -302 121 -246 106 -385 153 -515 176
l-94 17 0 88 0 89 68 30 c158 71 354 128 497 143 64 6 213 -4 295 -21z m138
-223 c46 -12 129 -46 185 -74 l102 -51 3 -82 c2 -63 0 -83 -10 -83 -41 0 -279
67 -378 106 -130 52 -399 188 -378 192 140 27 359 24 476 -8z m-825 -201 c105
-27 227 -72 448 -167 281 -121 491 -182 627 -182 l42 0 0 -76 0 -77 -64 6
c-76 7 -147 33 -209 76 -39 27 -50 30 -68 21 -25 -14 -22 -21 33 -103 59 -88
137 -160 229 -214 54 -31 79 -52 79 -64 0 -18 -10 -19 -133 -19 l-133 0 -57
83 c-190 280 -460 457 -869 572 l-98 28 0 75 0 74 48 -7 c26 -3 82 -15 125
-26z m17 -235 c169 -55 332 -134 436 -212 94 -70 224 -203 283 -290 l42 -62
-138 0 -138 0 -40 76 c-48 92 -130 185 -207 234 -74 48 -198 88 -323 103
l-100 13 -3 97 -3 98 28 -7 c15 -4 89 -26 163 -50z m16 -229 c161 -36 291
-130 362 -262 17 -33 32 -64 32 -67 0 -3 -44 -6 -98 -6 l-98 0 -34 52 c-19 29
-57 69 -84 90 -48 36 -166 80 -248 93 l-38 6 0 63 0 62 68 -8 c37 -4 99 -14
138 -23z m1042 -94 l42 -1 0 -66 0 -65 -52 28 c-29 15 -79 53 -112 84 l-60 56
69 -18 c39 -10 89 -18 113 -18z m-1155 -80 c100 -26 144 -50 195 -105 23 -25
42 -48 42 -51 0 -3 -74 -5 -165 -5 l-165 0 0 90 c0 50 4 90 8 90 5 0 43 -9 85
-19z"/>
<path d="M60 275 c-23 -69 -46 -127 -51 -130 -5 -4 -9 -13 -9 -21 0 -10 12
-14 45 -14 46 0 58 13 31 34 -10 8 -12 18 -5 34 7 18 16 22 49 22 33 0 42 -4
49 -22 7 -16 5 -26 -5 -34 -30 -24 -14 -34 56 -34 72 0 84 8 56 39 -7 9 -31
69 -52 134 l-38 117 -42 0 -42 0 -42 -125z m77 0 c11 -34 11 -35 -17 -35 -28
0 -28 1 -17 35 6 19 13 35 17 35 4 0 11 -16 17 -35z"/>
<path d="M600 385 c0 -8 5 -15 10 -15 6 0 10 -43 10 -109 0 -63 -4 -112 -10
-116 -5 -3 -10 -13 -10 -21 0 -11 16 -14 70 -14 53 0 70 3 70 14 0 8 -7 16
-15 20 -18 6 -21 86 -4 86 6 0 22 -27 36 -60 l26 -60 49 0 c50 0 63 15 35 39
-8 6 -22 29 -32 50 -17 39 -17 40 4 67 35 45 27 95 -20 119 -41 21 -219 21
-219 0z m154 -28 c12 -9 17 -23 14 -47 -2 -30 -7 -35 -30 -38 -27 -3 -28 -2
-28 47 0 54 10 63 44 38z"/>
<path d="M1182 353 c2 -36 7 -49 20 -51 12 -2 19 5 24 25 7 29 20 43 42 43 19
0 17 -216 -3 -224 -8 -3 -15 -12 -15 -21 0 -12 14 -15 70 -15 56 0 70 3 70 15
0 9 -7 18 -15 21 -20 8 -22 224 -2 224 21 0 35 -14 38 -40 2 -14 12 -26 22
-28 14 -3 17 4 17 47 l0 51 -136 0 -135 0 3 -47z"/>
<path d="M1770 386 c0 -8 7 -16 15 -20 12 -4 15 -26 15 -110 0 -83 -3 -105
-15 -110 -8 -3 -15 -12 -15 -21 0 -12 16 -15 90 -15 146 0 201 36 207 138 5
69 -19 116 -72 138 -47 19 -225 20 -225 0z m188 -52 c33 -37 32 -125 -3 -159
-13 -14 -36 -25 -50 -25 l-25 0 0 111 0 111 28 -6 c15 -4 37 -18 50 -32z"/>
<path d="M2435 283 c-20 -65 -43 -125 -51 -134 -25 -28 -16 -39 31 -39 33 0
45 4 45 15 0 7 -6 18 -14 22 -9 6 -11 15 -5 31 7 18 16 22 49 22 33 0 42 -4
49 -22 7 -16 5 -26 -5 -34 -30 -24 -14 -34 56 -34 72 0 84 8 56 39 -7 9 -31
69 -52 134 l-38 117 -42 0 -42 0 -37 -117z m73 -5 c10 -38 10 -38 -18 -38 -19
0 -28 4 -25 13 28 80 28 80 43 25z"/>
<path d="M2930 385 c0 -8 4 -15 9 -15 5 0 29 -58 53 -130 l42 -130 41 0 41 0
39 126 c21 69 45 128 52 131 7 3 13 11 13 19 0 10 -13 14 -45 14 -32 0 -45 -4
-45 -14 0 -8 6 -16 12 -18 10 -4 8 -19 -6 -64 -37 -119 -35 -117 -61 -42 -38
111 -38 108 -21 108 9 0 16 7 16 15 0 12 -14 15 -70 15 -56 0 -70 -3 -70 -15z"/>
<path d="M3510 70 c0 -19 7 -20 100 -20 93 0 100 1 100 20 0 19 -7 20 -100 20
-93 0 -100 -1 -100 -20z"/>
</g>
</svg>
